# xmcd
#
# Track frame offsets: 
#        150
#        10416
#        27020
#        36948
#        58864
#        77400
#        95652
#        117581
#        127755
#        140015
#        155062
#        162776
#        178095
#        187618
#        205122
#        227573
#        244171
#        268560
#        291048
#        308056
#        329568
#        346221
#
# Disc length: 4794 seconds
#
# Revision: 0
# Processed by: cddbd v1.5.2PL0 Copyright (c) Steve Scherf et al.
# Submitted via: ExactAudioCopy v0.99pb4
#
DISCID=3012b816
DTITLE=Various Artist - prevue promo 1151-2 christmas 2004
DYEAR=2004
DGENRE=christmas
TTITLE0=Clay Aiken - Silent Night
TTITLE1=Dianne Reeves - Christmas Waltz
TTITLE2=Dean Martin - Winter Wonderland
TTITLE3=Kathy Mattea - Straw Against The Chill
TTITLE4=Harry Connick, Jr. and George Jones - Nothin' New For New Year
TTITLE5=Clay Aiken - Merry Christmas With Love
TTITLE6=Donald Lawrence and The Tri-City Singers - Carol Of The Bells
TTITLE7=Elvis Presley - Holly Leaves And Christmas Trees
TTITLE8=Christmas Grass Instrumental - It Came Upon A Midnight Clear(C
TTITLE8=hristmas - Instrumental)
TTITLE9=Remi - Have Yourself A Merry Little Christmas
TTITLE10=Bobby Helms - I Wanna Go To Santa Claus Land Tonight
TTITLE11=Irish Rovers, The - Holly Bears The Crown, The
TTITLE12=Joe Nichols - I'll Be Home For Christmas
TTITLE13=Leann Rimes - All I Want For Christmas
TTITLE14=Dianne Reeves - Little Drummer Boy, The
TTITLE15=Rhonda Vincent - Tennessee Christmas
TTITLE16=Waitresses, The - Christmas Wrapping
TTITLE17=Will Downing - Christmas Song, The
TTITLE18=Stephanie Urbina Jones - Winter Wonderland
TTITLE19=Luther Vandross - This Is Christmas
TTITLE20=Harry Connick, Jr. - Happy Elf, The
TTITLE21=Clay Aiken - Sleigh Ride
EXTD=
EXTT0=
EXTT1=
EXTT2=
EXTT3=
EXTT4=
EXTT5=
EXTT6=
EXTT7=
EXTT8=
EXTT9=
EXTT10=
EXTT11=
EXTT12=
EXTT13=
EXTT14=
EXTT15=
EXTT16=
EXTT17=
EXTT18=
EXTT19=
EXTT20=
EXTT21=
PLAYORDER=
